<?xml version="1.0" standalone="no"?>
<!DOCTYPE svg PUBLIC "-//W3C//DTD SVG 20010904//EN"
 "http://www.w3.org/TR/2001/REC-SVG-20010904/DTD/svg10.dtd">
<svg version="1.0" xmlns="http://www.w3.org/2000/svg"
 width="348.000000pt" height="348.000000pt" viewBox="0 0 348.000000 348.000000"
 preserveAspectRatio="xMidYMid meet">
<metadata>
Created by potrace 1.14, written by Peter Selinger 2001-2017
</metadata>
<g transform="translate(0.000000,348.000000) scale(0.100000,-0.100000)"
fill="#000000" stroke="none">
<path d="M1542 3299 c-41 -6 -124 -23 -185 -38 -892 -225 -1409 -1159 -1125
-2031 155 -477 520 -849 997 -1014 189 -66 279 -80 511 -80 159 0 224 4 290
17 570 120 1001 482 1204 1013 100 263 125 600 66 877 -134 627 -615 1104
-1248 1237 -114 24 -395 35 -510 19z m160 -56 c10 -3 26 -2 35 3 23 10 93 13
87 3 -7 -12 20 -16 38 -5 13 7 21 6 35 -6 25 -22 91 -29 78 -8 -11 18 11 11
29 -9 16 -17 20 -18 44 -5 16 8 28 10 30 4 2 -6 8 -7 14 -4 5 3 12 -3 15 -14
6 -24 44 -34 62 -15 9 10 16 11 25 4 7 -6 25 -12 40 -13 14 -1 26 -6 26 -11 0
-4 5 -5 12 -1 7 4 8 3 4 -5 -4 -6 -16 -9 -27 -6 -10 4 -19 2 -19 -4 0 -5 17
-13 38 -17 20 -4 47 -14 59 -22 13 -8 30 -12 38 -9 8 4 21 0 29 -8 9 -9 16
-11 18 -4 2 7 15 4 36 -8 33 -19 44 -37 15 -26 -11 4 -14 3 -9 -5 4 -7 21 -12
37 -12 17 0 44 -7 62 -16 35 -18 87 -70 87 -86 0 -6 9 -8 20 -5 23 6 70 -27
70 -49 0 -8 4 -14 10 -14 5 0 7 -6 4 -14 -3 -7 2 -16 12 -20 12 -4 15 -2 10 9
-3 8 -2 15 3 15 4 0 15 -18 24 -40 16 -41 36 -53 38 -22 1 9 6 2 12 -16 6 -21
18 -34 34 -38 13 -4 30 -20 39 -40 9 -19 21 -31 26 -28 5 3 8 0 6 -7 -1 -8 12
-29 29 -48 47 -50 63 -70 63 -78 0 -3 7 -15 16 -25 14 -15 15 -20 4 -34 -8 -9
-10 -18 -4 -22 5 -4 15 -20 22 -35 6 -15 19 -30 27 -33 8 -4 15 -15 15 -25 0
-11 14 -34 31 -51 27 -29 29 -33 12 -39 -10 -4 -13 -8 -6 -8 7 -1 10 -8 6 -18
-4 -10 -2 -14 4 -10 7 5 9 0 6 -14 -4 -15 0 -22 16 -26 13 -3 21 -13 21 -27
-1 -21 -1 -21 -15 -2 -17 23 -20 4 -4 -25 6 -11 16 -18 24 -15 18 7 25 -37 8
-60 -7 -10 -13 -27 -13 -38 1 -20 2 -20 14 -4 15 20 26 14 26 -14 0 -10 -7
-18 -15 -18 -19 0 -19 -10 1 -38 8 -12 20 -20 25 -16 6 3 5 -4 -3 -16 -11 -18
-11 -23 2 -33 8 -7 16 -29 16 -49 2 -34 0 -37 -17 -27 -14 7 -19 6 -19 -3 0
-17 15 -39 26 -41 5 -1 9 -24 9 -52 0 -27 4 -56 8 -62 5 -9 3 -11 -6 -7 -21 7
-30 -12 -18 -35 8 -14 7 -22 -4 -31 -10 -8 -15 -30 -15 -61 0 -27 -4 -49 -10
-49 -5 0 -10 -7 -10 -15 0 -8 7 -15 15 -15 8 0 15 7 15 15 0 8 5 15 11 15 5 0
2 -14 -8 -30 -10 -17 -19 -26 -21 -20 -8 24 -20 8 -13 -17 5 -16 13 -27 19
-26 12 3 -1 -41 -19 -63 -5 -6 -7 -19 -3 -28 3 -9 2 -16 -4 -16 -5 0 -12 -13
-15 -29 -4 -17 -14 -30 -26 -34 -24 -6 -28 -27 -6 -27 10 0 14 -9 13 -25 -2
-19 -8 -25 -25 -25 -14 0 -23 -6 -23 -15 0 -8 -4 -15 -10 -15 -5 0 -10 -8 -10
-17 0 -9 -8 -25 -17 -35 -13 -14 -14 -21 -5 -30 15 -15 16 -31 0 -22 -7 4 -8
3 -4 -4 11 -18 -5 -65 -17 -53 -16 16 -25 14 -38 -10 -7 -14 -8 -24 -1 -28 7
-4 5 -18 -4 -39 -11 -27 -18 -32 -34 -27 -16 5 -20 2 -21 -17 -1 -13 -2 -30
-3 -38 0 -9 -13 -16 -33 -18 -21 -2 -33 -9 -33 -18 0 -8 5 -14 10 -14 6 0 10
-5 10 -12 0 -9 -3 -9 -12 0 -9 9 -15 8 -27 -3 -9 -8 -27 -24 -41 -35 -22 -18
-23 -19 -5 -17 11 1 20 -2 20 -8 0 -5 -4 -9 -9 -7 -13 4 -55 -17 -83 -42 -17
-14 -20 -23 -12 -32 13 -15 -15 -34 -41 -27 -23 6 -37 -16 -19 -29 10 -6 8 -8
-8 -6 -15 2 -30 -7 -45 -27 -13 -16 -30 -30 -38 -30 -8 0 -15 -8 -15 -19 0
-27 -94 -77 -119 -64 -13 7 -21 7 -26 -1 -4 -7 -13 -11 -20 -9 -8 2 -16 -6
-18 -16 -2 -11 -10 -26 -17 -33 -11 -11 -16 -10 -29 2 -14 14 -18 14 -41 -1
-20 -13 -23 -19 -14 -30 9 -11 8 -14 -5 -14 -9 0 -16 5 -16 10 0 6 -9 10 -20
10 -11 0 -20 -4 -20 -8 0 -5 -12 -14 -26 -20 -14 -7 -23 -8 -19 -2 3 5 -1 10
-10 10 -12 0 -15 -6 -10 -19 3 -11 1 -22 -5 -26 -6 -3 -10 3 -10 14 0 12 -7
21 -15 21 -9 0 -15 -9 -15 -22 -1 -21 -2 -21 -11 -5 -13 22 -30 22 -57 -3 -12
-12 -23 -16 -27 -10 -10 15 -25 12 -25 -6 0 -11 -6 -14 -22 -9 -26 8 -23 8
-61 6 -20 -1 -31 -7 -34 -21 -5 -19 -7 -20 -23 -5 -12 11 -42 17 -99 19 -75 2
-81 1 -75 -16 8 -25 -26 -24 -49 2 -24 28 -57 27 -49 -2 4 -16 2 -19 -9 -12
-19 11 -39 16 -71 15 -18 -1 -28 4 -28 13 0 20 -30 29 -36 11 -5 -12 -10 -11
-32 6 -20 15 -28 17 -32 7 -4 -10 -12 -9 -40 4 -19 10 -30 18 -25 18 6 0 3 4
-4 9 -9 6 -22 6 -32 0 -12 -6 -20 -5 -25 2 -3 6 -14 9 -24 6 -9 -2 -22 3 -28
13 -6 9 -20 20 -32 23 -17 4 -19 3 -9 -9 9 -11 9 -14 -1 -14 -6 0 -14 8 -17
18 -2 10 -13 19 -24 19 -11 1 -34 9 -51 17 -17 9 -39 16 -48 16 -10 0 -20 9
-23 19 -3 14 -11 18 -25 14 -15 -3 -29 3 -46 22 -14 15 -29 24 -35 21 -5 -4
-12 -2 -16 4 -3 5 3 10 15 10 12 0 19 4 16 9 -3 5 -15 7 -26 4 -16 -4 -19 -2
-14 11 6 16 4 17 -41 20 -26 1 -75 33 -75 48 0 6 9 3 20 -7 11 -10 23 -15 27
-11 11 11 -11 26 -44 30 -36 4 -116 73 -109 93 3 7 0 12 -6 10 -7 -1 -17 8
-23 20 -5 13 -17 23 -25 23 -12 0 -13 2 -1 9 18 12 5 32 -16 24 -21 -8 -43 22
-36 48 5 17 2 20 -13 17 -27 -5 -60 38 -44 57 10 12 7 18 -19 32 -21 12 -30
24 -27 36 2 9 0 15 -4 12 -5 -3 -11 -1 -15 5 -3 5 -1 10 6 10 7 0 2 9 -11 20
-13 11 -27 20 -32 20 -5 0 -6 6 -1 13 14 22 11 37 -6 37 -22 0 -46 47 -28 53
9 3 9 10 1 28 -26 56 -53 125 -57 144 -2 11 -8 19 -15 18 -6 -2 -14 9 -18 25
-3 15 -10 41 -15 58 -5 17 -7 57 -4 89 5 49 3 57 -10 52 -9 -4 -15 -1 -15 7 0
8 -3 22 -6 30 -5 12 -2 15 10 10 11 -4 16 0 16 14 0 11 -5 22 -10 24 -7 2 -7
15 0 37 5 19 7 38 4 42 -10 16 -23 9 -27 -13 -3 -14 -4 -10 -4 10 1 19 6 32
14 32 7 0 13 9 13 21 0 15 -5 19 -15 15 -18 -7 -18 -7 0 37 9 23 11 38 5 42
-15 10 -12 35 5 35 18 0 20 21 3 38 -8 8 -8 12 -1 12 5 0 10 12 9 28 0 15 3
38 8 51 6 18 5 22 -5 17 -8 -4 -6 -1 4 7 19 16 23 37 7 37 -7 0 -6 8 1 23 7
12 12 35 11 50 -2 18 2 26 8 22 15 -9 41 58 38 97 -2 22 1 32 10 30 6 -1 12
-1 12 0 1 2 3 21 6 43 6 49 23 95 35 95 5 0 9 6 9 13 0 8 9 22 20 32 12 10 19
24 16 31 -3 9 1 11 11 7 13 -5 15 -2 10 17 -7 26 18 70 39 70 8 0 14 9 14 20
0 10 8 27 19 37 10 10 22 28 26 41 5 17 10 20 20 12 9 -8 17 -4 29 14 9 14 16
30 16 36 0 6 7 13 16 17 8 3 20 16 24 29 5 13 15 22 22 20 7 -1 10 -1 6 1 -13
8 -9 23 6 23 7 0 16 9 19 20 3 11 10 20 16 20 6 0 7 -7 4 -17 -4 -11 -3 -14 6
-9 7 5 10 14 7 21 -6 16 27 48 38 38 4 -5 7 -3 6 2 -5 21 1 30 9 16 12 -19 34
-3 28 20 -3 11 -1 17 4 13 5 -3 9 -1 9 3 0 13 59 45 70 38 5 -3 17 3 27 15 10
11 25 20 35 20 10 0 18 7 18 18 0 9 11 22 25 29 14 6 23 7 20 3 -3 -5 -1 -11
5 -15 5 -3 15 6 20 20 5 14 14 24 19 20 5 -3 12 -1 15 3 3 5 16 7 30 5 16 -3
28 2 39 17 11 16 26 21 56 22 22 0 38 4 35 9 -3 5 8 9 25 9 16 0 34 6 38 14
13 21 51 38 55 24 3 -7 14 -9 33 -4 23 6 26 9 14 17 -15 9 -15 9 52 14 14 1
31 5 36 8 6 4 13 1 16 -7 7 -17 99 -4 131 18 11 8 28 12 36 9 8 -3 23 -8 32
-10z m-122 -3 c0 -5 -4 -10 -10 -10 -5 0 -10 5 -10 10 0 6 5 10 10 10 6 0 10
-4 10 -10z m-1255 -2090 c3 -5 1 -10 -4 -10 -6 0 -11 5 -11 10 0 6 2 10 4 10
3 0 8 -4 11 -10z m1640 -939 c3 -5 1 -12 -5 -16 -5 -3 -10 1 -10 9 0 18 6 21
15 7z"/>
<path d="M1731 3040 c-99 -21 -171 -75 -171 -129 0 -22 119 -689 170 -950 27
-139 112 -137 195 6 57 97 235 364 329 491 147 201 176 250 176 300 0 37 -6
49 -46 92 -112 120 -276 182 -509 194 -55 3 -120 1 -144 -4z"/>
<path d="M1262 2951 c-102 -25 -201 -78 -307 -164 -114 -92 -179 -176 -196
-252 -23 -101 -77 -55 645 -551 219 -151 242 -161 286 -126 32 26 29 62 -30
336 -28 131 -62 311 -76 400 -30 192 -50 290 -65 317 -31 59 -122 73 -257 40z"/>
<path d="M2676 2912 c-3 -6 -1 -14 5 -17 15 -10 25 3 12 16 -7 7 -13 7 -17 1z"/>
<path d="M2463 2704 c-11 -11 -121 -165 -244 -344 -122 -179 -249 -363 -283
-410 -65 -92 -75 -133 -41 -170 26 -29 63 -26 291 24 110 25 285 58 389 75
303 49 355 61 389 92 28 25 31 33 34 101 7 136 -48 284 -157 421 -124 157
-206 217 -306 225 -39 3 -55 0 -72 -14z"/>
<path d="M649 2376 c-75 -51 -157 -187 -194 -321 -22 -83 -32 -329 -15 -390
16 -57 62 -123 96 -136 25 -9 270 33 889 150 161 31 185 44 185 100 0 39 -30
64 -245 201 -104 67 -261 173 -348 237 -266 193 -297 207 -368 159z"/>
<path d="M350 2349 c0 -5 5 -7 10 -4 6 3 10 8 10 11 0 2 -4 4 -10 4 -5 0 -10
-5 -10 -11z"/>
<path d="M2680 1869 c-140 -26 -358 -66 -485 -89 -126 -23 -240 -46 -252 -51
-12 -4 -30 -20 -39 -34 -29 -45 -1 -85 107 -153 159 -101 397 -260 496 -333
236 -175 284 -195 350 -146 38 28 96 96 128 152 88 149 124 478 66 598 -26 54
-63 93 -94 99 -13 2 -137 -17 -277 -43z"/>
<path d="M3240 1760 c0 -5 5 -10 11 -10 5 0 7 5 4 10 -3 6 -8 10 -11 10 -2 0
-4 -4 -4 -10z"/>
<path d="M3246 1693 c9 -38 14 -42 14 -10 0 14 -5 29 -10 32 -7 4 -8 -3 -4
-22z"/>
<path d="M1475 1671 c-125 -33 -398 -89 -613 -125 -142 -23 -270 -49 -286 -57
-54 -26 -71 -62 -69 -145 2 -139 59 -276 174 -418 115 -144 191 -196 292 -204
53 -4 59 -2 82 24 25 29 85 114 407 584 174 253 187 280 155 324 -15 21 -93
30 -142 17z"/>
<path d="M1823 1585 c-38 -27 -37 -62 11 -277 25 -112 61 -300 81 -418 58
-356 64 -378 120 -404 72 -34 238 -7 365 60 76 40 244 174 283 226 36 48 63
107 70 152 11 67 -10 91 -166 198 -78 53 -230 157 -337 230 -345 237 -362 248
-384 248 -12 0 -31 -7 -43 -15z"/>
<path d="M1657 1562 c-16 -9 -58 -64 -94 -122 -118 -188 -195 -302 -327 -485
-145 -202 -171 -250 -160 -297 15 -72 167 -184 304 -226 92 -28 247 -46 342
-39 92 6 176 42 211 89 25 33 28 7 -66 513 -36 193 -73 392 -83 444 -23 131
-59 165 -127 123z"/>
<path d="M3135 1160 c-3 -5 -1 -10 4 -10 6 0 11 5 11 10 0 6 -2 10 -4 10 -3 0
-8 -4 -11 -10z"/>
<path d="M670 645 c0 -8 7 -15 16 -15 14 0 14 3 4 15 -7 8 -14 15 -16 15 -2 0
-4 -7 -4 -15z"/>
<path d="M940 425 c0 -8 7 -15 15 -15 8 0 15 4 15 9 0 5 -7 11 -15 15 -9 3
-15 0 -15 -9z"/>
<path d="M2515 430 c-3 -6 1 -13 10 -16 19 -8 30 0 20 15 -8 14 -22 14 -30 1z"/>
<path d="M1505 220 c4 -6 11 -8 16 -5 14 9 11 15 -7 15 -8 0 -12 -5 -9 -10z"/>
</g>
</svg>
